/* XPM */
static char *RNDPTS_xpm[]={
"32 32 793 2",
"      c #22651C",
" 0    c #508427",
" 1    c #5A8E2B",
" 2    c #598D2C",
" 3    c #5B902E",
" 4    c #5A8F2F",
" 5    c #5A8E30",
" 6    c #52882B",
" 7    c #2E7722",
" 8    c #226F20",
" 9    c #226E20",
" a    c #58882F",
" b    c #5A852B",
" c    c #4F7B25",
" d    c #567D26",
" e    c #557B25",
" f    c #527824",
" g    c #507522",
" h    c #37681C",
" i    c #1C5C1B",
" j    c #1C5A1A",
" k    c #366921",
" l    c #4E6E1E",
" m    c #4D6C1D",
" n    c #4C6B1C",
" o    c #4B6A1B",
" p    c #4A691A",
" q    c #49671A",
" r    c #426418",
" s    c #205617",
" t    c #195317",
" u    c #185217",
" v    c #41751D",
" w    c #F3CB55",
" x    c #FED863",
" y    c #FFE36E",
" z    c #FFF581",
" A    c #FFFE8E",
" B    c #FFFF9B",
" C    c #FFFF9C",
" D    c #E5E37C",
" E    c #64892B",
" F    c #20691F",
" G    c #D7CC5B",
" H    c #FFE575",
" I    c #F9D365",
" J    c #F0CA5D",
" K    c #E3BD51",
" L    c #D7B347",
" M    c #D1AD42",
" N    c #C6A439",
" O    c #878423",
" P    c #1F5919",
" Q    c #9BAD4F",
" R    c #BA9C39",
" S    c #AF8E29",
" T    c #AB8B27",
" U    c #A78824",
" V    c #A38522",
" W    c #A18220",
" X    c #9E801F",
" Y    c #907B1B",
" Z    c #446013",
" &    c #185117",
"0     c #40771D",
"00    c #ECC44E",
"01    c #F8CF59",
"02    c #DDBD51",
"03    c #D9C259",
"04    c #D9CA60",
"05    c #D9CF67",
"06    c #E5E076",
"07    c #FFFB8B",
"08    c #E3D863",
"09    c #3C701E",
"0a    c #D4C250",
"0b    c #FEDB6B",
"0c    c #F1CC5E",
"0d    c #CBAE44",
"0e    c #C2A53D",
"0f    c #BB9E37",
"0g    c #BA9B36",
"0h    c #C7A43A",
"0i    c #C19F36",
"0j    c #606F19",
"0k    c #A8B456",
"0l    c #B99C3A",
"0m    c #AE8E29",
"0n    c #97801E",
"0o    c #9A831D",
"0p    c #98821C",
"0q    c #96801B",
"0r    c #A08321",
"0s    c #9C7F1D",
"0t    c #947B18",
"0u    c #1F4811",
"0v    c #3E721C",
"0w    c #E2BB46",
"0x    c #EEC651",
"0y    c #B39721",
"0z    c #6F630F",
"0A    c #6A5E0F",
"0B    c #968326",
"0C    c #FFEA77",
"0D    c #F2DB6A",
"0E    c #687514",
"0F    c #CCB449",
"0G    c #F7D162",
"0H    c #B69C34",
"0I    c #74670F",
"0J    c #685C0F",
"0K    c #675C0E",
"0L    c #7D6D14",
"0M    c #CBAC3E",
"0N    c #BF9D34",
"0O    c #6F6515",
"0P    c #9A9A3C",
"0Q    c #B99C35",
"0R    c #AE8E28",
"0S    c #6A600B",
"0T    c #63590D",
"0U    c #5F560C",
"0V    c #6F620D",
"0W    c #D3BF67",
"0X    c #9F8321",
"0Y    c #9A7D1C",
"0Z    c #253207",
"0&    c #3B6E1C",
"1     c #DBB641",
"10    c #E6BF4A",
"11    c #E1BC45",
"12    c #D8B849",
"13    c #D7B84D",
"14    c #D9BB51",
"15    c #F6D35E",
"16    c #FEDA67",
"17    c #D9B94C",
"18    c #615E0D",
"19    c #C9AD42",
"1a    c #ECC758",
"1b    c #B59B2E",
"1c    c #0D1D07",
"1d    c #081907",
"1e    c #1B280B",
"1f    c #D8B549",
"1g    c #BD9C33",
"1h    c #736716",
"1i    c #959535",
"1j    c #B89B32",
"1k    c #AD8E27",
"1l    c #3A3F08",
"1m    c #081B08",
"1n    c #122308",
"1o    c #E9D97D",
"1p    c #9F8323",
"1q    c #9A7E1B",
"1r    c #243107",
"1s    c #39691B",
"1t    c #D5B03C",
"1u    c #DFB943",
"1v    c #E4BE49",
"1w    c #E9C34E",
"1x    c #EDC753",
"1y    c #EEC854",
"1z    c #F3CD5A",
"1A    c #F3CD5B",
"1B    c #C9AB37",
"1C    c #303809",
"1D    c #C3A73B",
"1E    c #E4C050",
"1F    c #B1972B",
"1G    c #0C1D07",
"1H    c #081908",
"1I    c #0D2B0D",
"1J    c #20320E",
"1K    c #D6B047",
"1L    c #BC9B31",
"1M    c #726615",
"1N    c #959434",
"1O    c #B79B31",
"1P    c #AC8D26",
"1Q    c #393E08",
"1R    c #16290A",
"1S    c #F9E47A",
"1T    c #9F8322",
"1U    c #233107",
"1V    c #38661A",
"1W    c #D1AC38",
"1X    c #D9B43E",
"1Y    c #A68C24",
"1Z    c #917B1D",
"1&    c #927C1D",
"2     c #8B771B",
"20    c #A88E2F",
"21    c #E8C350",
"22    c #DDBA48",
"23    c #48490D",
"24    c #BBA237",
"25    c #DCB949",
"26    c #AC9228",
"27    c #0C1C07",
"28    c #103310",
"29    c #194D18",
"2a    c #2B5719",
"2b    c #D1AD40",
"2c    c #BA9A2F",
"2d    c #706515",
"2e    c #938C33",
"2f    c #B6982F",
"2g    c #AB8D25",
"2h    c #383D08",
"2i    c #081A08",
"2j    c #1B340E",
"2k    c #FAE470",
"2l    c #233007",
"2m    c #386519",
"2n    c #CCA934",
"2o    c #D4AF39",
"2p    c #AF951E",
"2q    c #1F2C09",
"2r    c #081A07",
"2s    c #524F13",
"2t    c #DEBB48",
"2u    c #D7B443",
"2v    c #6D650E",
"2w    c #B59C37",
"2x    c #D4B242",
"2y    c #A88F25",
"2z    c #0F2E0E",
"2A    c #184917",
"2B    c #2A5318",
"2C    c #CDAB3B",
"2D    c #B8982D",
"2E    c #6D6213",
"2F    c #948732",
"2G    c #B5962E",
"2H    c #AA8C24",
"2I    c #5D5917",
"2J    c #5C5816",
"2K    c #636317",
"2L    c #C7B04A",
"2M    c #9C801B",
"2N    c #967B19",
"2O    c #192807",
"2P    c #396418",
"2Q    c #C9A631",
"2R    c #CFAB36",
"2S    c #AF931E",
"2T    c #4F4F12",
"2U    c #D7B441",
"2V    c #D0AE3D",
"2W    c #6C630E",
"2X    c #B19636",
"2Y    c #CEAD3D",
"2Z    c #A48B23",
"2&    c #0C1B07",
"3     c #0C250B",
"30    c #174716",
"31    c #295018",
"32    c #C9A837",
"33    c #B5962B",
"34    c #6B6012",
"35    c #93832F",
"36    c #B3942C",
"37    c #A98B23",
"38    c #A78921",
"39    c #A48720",
"3a    c #A1841E",
"3b    c #9F831D",
"3c    c #9D811C",
"3d    c #665B0E",
"3e    c #081C08",
"3f    c #2A5B1A",
"3g    c #A48929",
"3h    c #A88D29",
"3i    c #A18A18",
"3j    c #22350C",
"3k    c #0D290C",
"3l    c #0E2E0E",
"3m    c #3E4715",
"3n    c #AB902F",
"3o    c #AA9229",
"3p    c #655D0D",
"3q    c #8F7B27",
"3r    c #A9912B",
"3s    c #927E1A",
"3t    c #111F07",
"3u    c #0B210A",
"3v    c #164415",
"3w    c #214915",
"3x    c #AE9529",
"3y    c #9D8720",
"3z    c #635C0F",
"3A    c #7A6F1B",
"3B    c #9C861F",
"3C    c #96821A",
"3D    c #958119",
"3E    c #938017",
"3F    c #927F16",
"3G    c #907F15",
"3H    c #827411",
"3I    c #55510B",
"3J    c #0F2008",
"3K    c #1A5519",
"3L    c #102108",
"3M    c #283109",
"3N    c #293109",
"3O    c #194F18",
"3P    c #195018",
"3Q    c #222E09",
"3R    c #2A3109",
"3S    c #55290A",
"3T    c #343615",
"3U    c #2B3109",
"3V    c #272E09",
"3W    c #071707",
"3X    c #0C240B",
"3Y    c #164115",
"3Z    c #154015",
"3&    c #2C3D0E",
"4     c #152108",
"40    c #142108",
"41    c #262E08",
"42    c #262F08",
"43    c #252F08",
"44    c #263008",
"45    c #112108",
"46    c #174A15",
"47    c #154414",
"48    c #194E17",
"49    c #184C17",
"4a    c #184A17",
"4b    c #394726",
"4c    c #4A2F16",
"4d    c #D45629",
"4e    c #914C1D",
"4f    c #0E1C0A",
"4g    c #3D371C",
"4h    c #3B401D",
"4i    c #153E14",
"4j    c #133912",
"4k    c #081808",
"4l    c #071807",
"4m    c #081807",
"4n    c #195318",
"4o    c #184D17",
"4p    c #184B17",
"4q    c #174917",
"4r    c #174816",
"4s    c #DD9762",
"4t    c #E98A54",
"4u    c #6B4E22",
"4v    c #604F22",
"4w    c #544D22",
"4x    c #43411C",
"4y    c #C66232",
"4z    c #C5602F",
"4A    c #1A3F15",
"4B    c #143C14",
"4C    c #2A4419",
"4D    c #614F25",
"4E    c #1D1F0B",
"4F    c #222B0F",
"4G    c #1F220C",
"4H    c #171F0A",
"4I    c #101D09",
"4J    c #195118",
"4K    c #0C260B",
"4L    c #0F300E",
"4M    c #174916",
"4N    c #6E8C5A",
"4O    c #688054",
"4P    c #7E5B28",
"4Q    c #835726",
"4R    c #585225",
"4S    c #554E23",
"4T    c #5F582B",
"4U    c #BDA46C",
"4V    c #A37542",
"4W    c #695123",
"4X    c #515524",
"4Y    c #4D5424",
"4Z    c #7F5626",
"4&    c #DF6430",
"5     c #523915",
"50    c #273515",
"51    c #1F3012",
"52    c #AE5424",
"53    c #F46A30",
"54    c #303714",
"55    c #192A0F",
"56    c #16280E",
"57    c #92481C",
"58    c #F9672B",
"59    c #413713",
"5a    c #0E2D0D",
"5b    c #184F17",
"5c    c #174A16",
"5d    c #234C1B",
"5e    c #E18C6A",
"5f    c #DF7756",
"5g    c #6D6331",
"5h    c #626632",
"5i    c #5D602C",
"5j    c #565226",
"5k    c #694E25",
"5l    c #C25C32",
"5m    c #8D4520",
"5n    c #4E4B22",
"5o    c #4F4C22",
"5p    c #605D2B",
"5q    c #846B36",
"5r    c #80602C",
"5s    c #615E2A",
"5t    c #5F612B",
"5u    c #61622C",
"5v    c #885D28",
"5w    c #985824",
"5x    c #5F612A",
"5y    c #5E6029",
"5z    c #5D5F28",
"5A    c #9C5622",
"5B    c #AF3810",
"5C    c #204012",
"5D    c #144113",
"5E    c #184D16",
"5F    c #174C16",
"5G    c #174B16",
"5H    c #164515",
"5I    c #5C421B",
"5J    c #54280B",
"5K    c #626737",
"5L    c #626736",
"5M    c #5E6231",
"5N    c #777450",
"5O    c #7D7956",
"5P    c #5D4A22",
"5Q    c #584A22",
"5R    c #4F4A22",
"5S    c #514C23",
"5T    c #925C30",
"5U    c #EF8A52",
"5V    c #82592B",
"5W    c #60612D",
"5X    c #63642E",
"5Y    c #946931",
"5Z    c #FA7E40",
"5&    c #8F612C",
"6     c #61632B",
"60    c #60622A",
"61    c #5D6029",
"62    c #EA6129",
"63    c #E5662B",
"64    c #144013",
"65    c #164715",
"66    c #224718",
"67    c #4C5326",
"68    c #51572A",
"69    c #565B2D",
"6a    c #575C2F",
"6b    c #575C2E",
"6c    c #CC8C79",
"6d    c #ECB5A4",
"6e    c #633C1A",
"6f    c #504A24",
"6g    c #534E26",
"6h    c #565128",
"6i    c #645128",
"6j    c #874D24",
"6k    c #705D2D",
"6l    c #646230",
"6m    c #666330",
"6n    c #895C2A",
"6o    c #AF4F21",
"6p    c #7A602B",
"6q    c #64652E",
"6r    c #62642C",
"6s    c #67612A",
"6t    c #A44519",
"6u    c #9A320C",
"6v    c #133F12",
"6w    c #50733D",
"6x    c #CCD59D",
"6y    c #836B42",
"6z    c #40481F",
"6A    c #454C22",
"6B    c #484E24",
"6C    c #4C5126",
"6D    c #505529",
"6E    c #563C1C",
"6F    c #661F08",
"6G    c #393217",
"6H    c #4F4A26",
"6I    c #56512B",
"6J    c #887E4F",
"6K    c #C2A870",
"6L    c #7C6B3F",
"6M    c #686136",
"6N    c #6D6739",
"6O    c #76683A",
"6P    c #98733F",
"6Q    c #7E713A",
"6R    c #6B6D36",
"6S    c #696B34",
"6T    c #666831",
"6U    c #6E6830",
"6V    c #90642C",
"6W    c #3F4718",
"6X    c #133E12",
"6Y    c #164915",
"6Z    c #164815",
"6&    c #164615",
"7     c #72491E",
"70    c #D36844",
"71    c #8B3916",
"72    c #3E451D",
"73    c #3E451E",
"74    c #40471F",
"75    c #414720",
"76    c #454A21",
"77    c #454421",
"78    c #3C391B",
"79    c #413D1E",
"7a    c #4F4927",
"7b    c #57512E",
"7c    c #9D5530",
"7d    c #D67447",
"7e    c #754E2C",
"7f    c #7A744A",
"7g    c #827A50",
"7h    c #957548",
"7i    c #F27F46",
"7j    c #C16D3A",
"7k    c #757744",
"7l    c #767843",
"7m    c #71733D",
"7n    c #916531",
"7o    c #F3632B",
"7p    c #BF5D27",
"7q    c #183F13",
"7r    c #29260B",
"7s    c #373413",
"7t    c #3D441C",
"7u    c #3D441D",
"7v    c #75795D",
"7w    c #B0B0A2",
"7x    c #5A5337",
"7y    c #3F3B1C",
"7z    c #443F1F",
"7A    c #4B4625",
"7B    c #55502D",
"7C    c #5B5230",
"7D    c #634A2B",
"7E    c #7C724A",
"7F    c #837C54",
"7G    c #898359",
"7H    c #977C52",
"7I    c #893F1F",
"7J    c #804F2D",
"7K    c #807D51",
"7L    c #828451",
"7M    c #7D804C",
"7N    c #806436",
"7O    c #9F3D18",
"7P    c #69350D",
"7Q    c #164614",
"7R    c #154514",
"7S    c #314218",
"7T    c #2C3614",
"7U    c #3A421B",
"7V    c #3C431C",
"7W    c #3C441C",
"7X    c #AB6A52",
"7Y    c #E8ADA1",
"7Z    c #6B371D",
"7&    c #3C391A",
"8     c #403C1D",
"80    c #464221",
"81    c #4F4A28",
"82    c #595330",
"83    c #645E38",
"84    c #6E6741",
"85    c #77714A",
"86    c #7F7850",
"87    c #827C53",
"88    c #847E54",
"89    c #827C52",
"8a    c #7F7950",
"8b    c #7D794D",
"8c    c #7B7D4B",
"8d    c #595D35",
"8e    c #0D2C0D",
"8f    c #113810",
"8g    c #164714",
"8h    c #918E53",
"8i    c #6D733F",
"8j    c #3A431A",
"8k    c #3B431B",
"8l    c #3B431C",
"8m    c #3D431C",
"8n    c #2F2E11",
"8o    c #461B06",
"8p    c #2D220D",
"8q    c #3D391B",
"8r    c #413D1D",
"8s    c #474221",
"8t    c #ABA88F",
"8u    c #BEBC96",
"8v    c #685C37",
"8w    c #605A34",
"8x    c #67613B",
"8y    c #6D6740",
"8z    c #716B43",
"8A    c #736D45",
"8B    c #756F47",
"8C    c #767048",
"8D    c #757047",
"8E    c #746E45",
"8F    c #716C43",
"8G    c #595A34",
"8H    c #0A2009",
"8I    c #10330F",
"8J    c #3C4F1D",
"8K    c #EB935C",
"8L    c #DA6B3C",
"8M    c #3F3E17",
"8N    c #3B431A",
"8O    c #3C421C",
"8P    c #303215",
"8Q    c #2A2811",
"8R    c #3E3A1B",
"8S    c #423E1E",
"8T    c #BB6D53",
"8U    c #E49F7D",
"8V    c #5F4624",
"8W    c #5C5631",
"8X    c #645E37",
"8Y    c #CF9860",
"8Z    c #DE995E",
"8&    c #74623A",
"9     c #6B653E",
"90    c #6B663E",
"91    c #6B653D",
"92    c #68633B",
"93    c #8B6034",
"94    c #2F290F",
"95    c #154614",
"96    c #513A0F",
"97    c #6A380E",
"98    c #174214",
"99    c #214216",
"9a    c #304218",
"9b    c #39431B",
"9c    c #616646",
"9d    c #6E7255",
"9e    c #4A502B",
"9f    c #3E431D",
"9g    c #3D3C1B",
"9h    c #423E1D",
"9i    c #464220",
"9j    c #473719",
"9k    c #48250D",
"9l    c #59532D",
"9m    c #5D5730",
"9n    c #605A33",
"9o    c #C8461F",
"9p    c #DC6333",
"9q    c #5D502D",
"9r    c #666139",
"9s    c #726037",
"9t    c #FB7338",
"9u    c #FF7538",
"9v    c #1F240C",
"9w    c #144313",
"9x    c #144213",
"9y    c #163F13",
"9z    c #B6A08E",
"9A    c #FBF1EF",
"9B    c #874F30",
"9C    c #3F451D",
"9D    c #3F421D",
"9E    c #403C1C",
"9F    c #433F1E",
"9G    c #474220",
"9H    c #4C4723",
"9I    c #4F4A25",
"9J    c #534D28",
"9K    c #56502A",
"9L    c #59542D",
"9M    c #5C562F",
"9N    c #4E4423",
"9O    c #493317",
"9P    c #5D5832",
"9Q    c #625C35",
"9R    c #625D35",
"9S    c #73542D",
"9T    c #A52807",
"9U    c #C5350F",
"9V    c #101F09",
"9W    c #081D08",
"9X    c #133E13",
"9Y    c #4F350D",
"9Z    c #98310F",
"9&    c #443910",
"a     c #223E16",
"a0    c #333C19",
"a1    c #6A664A",
"a2    c #565130",
"a3    c #4E4924",
"a4    c #514C26",
"a5    c #544E29",
"a6    c #57512B",
"a7    c #59532C",
"a8    c #5A552E",
"a9    c #5E5931",
"aa    c #5E5932",
"ab    c #4D4A27",
"ac    c #1D1F09",
"ad    c #144413",
"ae    c #143F13",
"af    c #133D12",
"ag    c #133C12",
"ah    c #133B12",
"ai    c #0B1B09",
"aj    c #2C341E",
"ak    c #FFFFFF",
"al    c #F3E4D9",
"am    c #534622",
"an    c #504A25",
"ao    c #534D27",
"ap    c #554F29",
"aq    c #56512A",
"ar    c #58522B",
"as    c #59542C",
"at    c #5A552D",
"au    c #5B562E",
"av    c #5C572F",
"aw    c #5B562F",
"ax    c #13230D",
"ay    c #091D08",
"az    c #154413",
"aA    c #131A07",
"aB    c #A22F13",
"aC    c #AA3E23",
"aD    c #19250E",
"aE    c #2E3317",
"aF    c #434220",
"aG    c #534E27",
"aH    c #7A683C",
"aI    c #BF935C",
"aJ    c #866C3E",
"aK    c #58532B",
"aL    c #58532C",
"aM    c #59552D",
"aN    c #17270F",
"aO    c #092009",
"aP    c #0E2C0D",
"aQ    c #0D1D09",
"aR    c #8E6038",
"aS    c #F5A266",
"aT    c #B87948",
"aU    c #514D27",
"aV    c #57522A",
"aW    c #57532B",
"aX    c #5C542B",
"aY    c #1C2A11",
"aZ    c #091E08",
"a&    c #134012",
"b     c #0C280B",
"b0    c #311D07",
"b1    c #832205",
"b2    c #5B2006",
"b3    c #0B1D09",
"b4    c #19270F",
"b5    c #2A3316",
"b6    c #3D401F",
"b7    c #4E4C26",
"b8    c #C66D36",
"b9    c #E06E35",
"ba    c #8B4D22",
"bb    c #144513",
"bc    c #0E2E0D",
"bd    c #D04E1D",
"be    c #F0652D",
"bf    c #9F5023",
"bg    c #144112",
"bh    c #134112",
"bi    c #123D11",
"bj    c #0C280C",
"bk    c #0D2B0C",
"bl    c #4C2307",
"bm    c #852606",
"bn    c #3E2207",
"   0 1 2 3 4 5 6 7 8 9 a b c d e f g h i j k l m n o p q r s t u",
" v w x y z A B C D E F G H I J K L M N O P Q R S T U V W X Y Z &",
"0 000102030405060708090a0b0c0d0e0f0g0h0i0j0k0l0m0n0o0p0q0r0s0t0u",
"0v0w0x0y0z0A0A0B0C0D0E0F0G0H0I0J0K0L0M0N0O0P0Q0R0S0T0U0V0W0X0Y0Z",
"0&1 101112131415161718191a1b1c1d1d1e1f1g1h1i1j1k1l1m1m1n1o1p1q1r",
"1s1t1u1v1w1x1y1z1A1B1C1D1E1F1G1H1I1J1K1L1M1N1O1P1Q1m1m1R1S1T1q1U",
"1V1W1X1Y1Z1&2 202122232425262728292a2b2c2d2e2f2g2h2i1m2j2k0X1q2l",
"2m2n2o2p2q2i2r2s2t2u2v2w2x2y272z2A2B2C2D2E2F2G2H0O2I2J2K2L2M2N2O",
"2P2Q2R2S2q2r1d2T2U2V2W2X2Y2Z2&3 303132333435363738393a3b3c2M3d3e",
"3f3g3h3i3j3k3l3m3n3o3p3q3r3s3t3u3v3w3x3y3z3A3B3C3D3E3F3G3H3I3J3e",
"3K3L3M3N3O3P3O293Q3R3S3T3U3V3W3X3Y3Z3&3V4 40414142434344451m1m3e",
"461m2i2i4748494a4b4c4d4e4f3W4g4h4i4i4j4k3W3W4l4l4m1d1d2r2i1m1m3e",
"4n1m2i2r4o4p4q4r4s4t4u4v4w4x4y4z4A4B4C4D4E3W3W4F4G1d1d1d4H4I1m3e",
"4J4K1I4L4p4M4N4O4P4Q4R4S4T4U4V4W4X4Y4Z4&5 505152535455565758595a",
"5b4o495c4M5d5e5f5g5h5i5j5k5l5m5n5o5p5q5r5s5t5u5v5w5x5y5z5A5B5C5D",
"5E5F5G4r4r5H5I5J5K5L5M5N5O5P5Q5R5S5T5U5V5W5X5Y5Z5&6 606162636464",
"5G5c4M655H666768696a6b6c6d6e6f6g6h6i6j6k6l6m6n6o6p6q6r6s6t6u6v64",
"5c4M656w6x6y6z6A6B6C6D6E6F6G6H6I6J6K6L6M6N6O6P6Q6R6S6T6U6V6W6X6v",
"6Y6Z6&7 707172737475767778797a7b7c7d7e7f7g7h7i7j7k7l7m7n7o7p6X6v",
"6Z656&7q7r7s7t7u727v7w7x7y7z7A7B7C7D7E7F7G7H7I7J7K7L7M7N7O7P6X6v",
"6Z7Q7R7S7T7U7V7W7u7X7Y7Z7&8 80818283848586878887898a8b8c8d8e8f6X",
"8g8h8i8j8k8k8l7V8m8n8o8p8q8r8s8t8u8v8w8x8y8z8A8B8C8D8E8F8G1m8H8I",
"8J8K8L8M8N8k8k7V7t8O8P8Q8R8S8s8T8U8V8W8w8X8Y8Z8&9 90919293943e3e",
"95969798999a9b9c9d9e9f9g8R9h9i9j9k7a9l9m9n9o9p9q9r9r9r9s9t9u9v3e",
"7R479w9x5D649y9z9A9B9C9D9E9F9G9H9I9J9K9L9M9N9O9P9Q9R9R9S9T9U9V9W",
"7R479w9x5D649X9Y9Z9&a a09E9Fa1a2a3a4a5a6a7a89M9ma9aaaaa9abac3e9W",
"7Rad9w9x5Dae6v6Xafagah5aaiajakalamanaoapaqarasatauauavawauax9Way",
"az9w9w9x5D646v6Xafagag8I1daAaBaCaDaEaFaGaHaIaJaKaL9L9LaMasaNayaO",
"ad9w9w9x5D646v6XafafagaP2r2r2r2r2r2r2raQaRaSaTaUaqaVaWaWaXaYayaZ",
"adad9w9x5Da&6v6v6Xafafb 2i2i2i2i2i2i2i2ib0b1b2b3b4b5b6b7b8b9baaZ",
"bbad9w9x5Da&a&6v6X6Xafbc1m1m1m1m1m1m1m1m1m1m1m3e3e3e9WaybdbebfaZ",
"bbad9w9xbgbha&6v6vbibjbk3e1m1may1m1m1m1m3e3e3e9W9WayaZaZblbmbnaO"};
