/* XPM */
static char *FILE_xpm[]={
"32 32 163 2",
"      c #C1C1C1",
" 0    c #9C9C00",
" 1    c #FFFF9C",
" 2    c #9D9C01",
" 3    c #9F9D04",
" 4    c #A29F0A",
" 5    c #A6A111",
" 6    c #ABA317",
" 7    c #AFA61E",
" 8    c #FFFE9C",
" 9    c #FFFC9C",
" a    c #FFF79C",
" b    c #FFF29C",
" c    c #FFED9C",
" d    c #F9E095",
" e    c #A69720",
" f    c #000000",
" g    c #FFFFFF",
" h    c #FFE79C",
" i    c #EDCC86",
" j    c #8F7717",
" k    c #FFFD9C",
" l    c #FFF39C",
" m    c #FFE89C",
" n    c #FFE29C",
" o    c #E6C07E",
" p    c #836614",
" q    c #FFF89C",
" r    c #FFE39C",
" s    c #FFDE9C",
" t    c #E6BC7E",
" u    c #856615",
" v    c #FFFB9C",
" w    c #FFEE9C",
" x    c #FFDA9C",
" y    c #E6BA7E",
" z    c #866817",
" A    c #FFD69C",
" B    c #8D8700",
" C    c #6E5D00",
" D    c #FFE99C",
" E    c #9E9D03",
" F    c #F0E7A5",
" G    c #F0E3A5",
" H    c #D0A99C",
" I    c #945866",
" J    c #C0AC92",
" K    c #E6DD7E",
" L    c #B49840",
" M    c #9F9E06",
" N    c #D1C8A8",
" O    c #BC0000",
" P    c #DD0000",
" Q    c #E00305",
" R    c #CF7777",
" S    c #A3A33A",
" T    c #E5E59B",
" U    c #A29F09",
" V    c #A5A10F",
" W    c #A9A315",
" X    c #A9A072",
" Y    c #572323",
" Z    c #E20507",
" &    c #D26364",
"0     c #E6E6AB",
"00    c #652425",
"01    c #D50609",
"02    c #E40607",
"03    c #D65151",
"04    c #EDE6A2",
"05    c #F4F4A3",
"06    c #B7B3B3",
"07    c #591212",
"08    c #BD0304",
"09    c #FFF59C",
"0a    c #BDBBBB",
"0b    c #6B1313",
"0c    c #D5080A",
"0d    c #DB4A44",
"0e    c #EDE686",
"0f    c #C7B257",
"0g    c #B8964B",
"0h    c #B49740",
"0i    c #B49640",
"0j    c #B49540",
"0k    c #B49440",
"0l    c #C7AB57",
"0m    c #EDDC86",
"0n    c #A4A429",
"0o    c #D81511",
"0p    c #E10A09",
"0q    c #E45F48",
"0r    c #E3362A",
"0s    c #E7090A",
"0t    c #E6DC7E",
"0u    c #E6DB7E",
"0v    c #E6D97E",
"0w    c #E6D87E",
"0x    c #E6D67E",
"0y    c #E6D47E",
"0z    c #F9EA95",
"0A    c #FFF09C",
"0B    c #AAA23E",
"0C    c #B57C67",
"0D    c #BE0706",
"0E    c #E5090B",
"0F    c #FEFD9C",
"0G    c #FFFA9C",
"0H    c #FFF19C",
"0I    c #FFEF9C",
"0J    c #B40D04",
"0K    c #D50508",
"0L    c #E20608",
"0M    c #F2D892",
"0N    c #FFF99C",
"0O    c #FFF69C",
"0P    c #FFF49C",
"0Q    c #FFEA9C",
"0R    c #BBB9B9",
"0S    c #652324",
"0T    c #5A1614",
"0U    c #773E2B",
"0V    c #B60304",
"0W    c #D60A0B",
"0X    c #E8090B",
"0Y    c #E8966D",
"0Z    c #FFEC9C",
"0&    c #AAAA49",
"1     c #B8AF9D",
"10    c #825757",
"11    c #86523D",
"12    c #822617",
"13    c #994D30",
"14    c #D0281C",
"15    c #E5080A",
"16    c #DA5D52",
"17    c #E9E5A9",
"18    c #FFEB9C",
"19    c #FFE59C",
"1a    c #E5E5AB",
"1b    c #BBAB90",
"1c    c #946543",
"1d    c #903E27",
"1e    c #973536",
"1f    c #E9E4A9",
"1g    c #FFE49C",
"1h    c #E4E2AC",
"1i    c #E4E1AC",
"1j    c #E4E0AC",
"1k    c #AE9278",
"1l    c #E9E2A9",
"1m    c #FFE69C",
"1n    c #FFE09C",
"1o    c #FFE19C",
"1p    c #FFDF9C",
"1q    c #FFDD9C",
"1r    c #FFDB9C",
"1s    c #FFDC9C",
"1t    c #FFD89C",
"1u    c #FFD99C",
"1v    c #FFD79C",
"1w    c #FFD59C",
"1x    c #FFD49C",
"                                                                ",
"           0 0 0                                                ",
"       0 0 0 1 0 0 0                                            ",
"     0 0 1 1 1 1 1 0 2 3 4 5 6 7                                ",
"     0 1 1 1 1 1 1 8 9 a b c d e f f f g g g f f f g g g        ",
"     0 1 1 1 1 1 8 9 a b c h i j f f f g g g f f f g g g        ",
"     0 1 1 1 1 k 9 a l c m n o p f f f g g g f f f g g g        ",
"     0 1 1 1 k 9 q l c m r s t u g g g f f f g g g f f f        ",
"     0 1 1 k v q l w m r s x y z g g g f f f g g g f f f        ",
"     0 8 k v q l w m r s x A B C g g g f f f g g g f f f        ",
"     2 k v q l w D r s 0 0 0 B C f f f g g g f f f g g g        ",
"     E v q F G H I J 0 0 1 1 K L f f f g g g f f f g g g        ",
"     M q l N O P Q R S T 1 1 K L f f f g g g f f f g g g        ",
"     U V W X Y O Q Z &0  1 1 K L g g g f f f g g g f f f 0 0    ",
"              0001 Z02030405 K L g g g f f f g g g f f f a 0    ",
"              06070802020304 K L g g g f f f g g g f f f09 0    ",
"                0a0b0c02020d0e0f0g L L L L0h0h0i0j0k0l0m b 0    ",
"                  0n0b0o020p0q0r0s K K0t0u0u0v0w0x0y0m0z0A 0    ",
"                  0B0C0D02 Z0E0s0s0F 8 k v0G q a09 l0H0I c 0    ",
"                  0J0K020L Z0s0s0s0M 9 v0N q0O0P l0H0I c0Q 0    ",
"                0R0S0T0U0V0W0s0X0s0Y v0N q0O0P b0A w0Z0Q m 0    ",
"                  0&1 1011121314151617 a09 l b0I w18 D h19 0    ",
"                   01a1a1a1b101c1d1e1f09 l0H0I c18 D h1g n 0    ",
"                   0 1 8 k1h1i1j1f1k1l b0A w0Z0Q m1m1g n1n 0    ",
"                   0 8 k 90G0N a0O0P b0A w0Z0Q m19 r1o1p1q 0    ",
"                   0 k 90G q a09 l0H0I c18 D h19 r1o1p1q1r 0    ",
"                   0 v0G q0O09 l0H0I c18 D1m1g n1n s1s x1t 0    ",
"                   00N q0O0P b0A w0Z0Q m1m1g n1p s1r x1t A 0    ",
"                   0 a090P b0A w0Z D h19 r1o1p1q1r1u1v1w1x 0    ",
"                   0 0 0 0 0 0 0 0 0 0 0 0 0 0 0 0 0 0 0 0 0    ",
"                                                                ",
"                                                                "};
